<svg viewBox="0 0 51 51">
<path d="M33.2476 20.166C33.2476 20.914 33.1569 21.5713 32.9756 22.138C32.7943 22.7047 32.5336 23.226 32.1936 23.702C31.8763 24.178 31.4796 24.6313 31.0036 25.062C30.5503 25.47 30.0289 25.9007 29.4396 26.354C29.0769 26.6487 28.7709 26.9093 28.5216 27.136C28.2949 27.3627 28.1136 27.6007 27.9776 27.85C27.8416 28.0767 27.7396 28.326 27.6716 28.598C27.6263 28.8473 27.6036 29.1533 27.6036 29.516V30.4H22.2996V29.108C22.2996 28.5187 22.3563 27.9973 22.4696 27.544C22.5829 27.068 22.7529 26.6373 22.9796 26.252C23.2063 25.8667 23.4783 25.4927 23.7956 25.13C24.1356 24.7673 24.5323 24.3933 24.9856 24.008L26.1076 22.954C26.4929 22.614 26.8216 22.2627 27.0936 21.9C27.3656 21.5147 27.5016 21.0613 27.5016 20.54C27.5016 19.8146 27.2749 19.2366 26.8216 18.806C26.3909 18.3753 25.7903 18.16 25.0196 18.16C24.0676 18.16 23.3536 18.4887 22.8776 19.146C22.4016 19.7806 22.1409 20.506 22.0956 21.322L16.6896 20.744C16.8256 19.52 17.1316 18.4433 17.6076 17.514C18.1063 16.5847 18.7409 15.814 19.5116 15.202C20.2823 14.59 21.1549 14.1366 22.1296 13.842C23.1043 13.5246 24.1356 13.366 25.2236 13.366C26.2436 13.366 27.2296 13.502 28.1816 13.774C29.1563 14.0233 30.0176 14.4313 30.7656 14.998C31.5136 15.542 32.1143 16.2446 32.5676 17.106C33.0209 17.9673 33.2476 18.9873 33.2476 20.166ZM28.2836 35.194C28.2836 36.1007 27.9663 36.8713 27.3316 37.506C26.6969 38.118 25.9149 38.424 24.9856 38.424C24.5323 38.424 24.1016 38.3447 23.6936 38.186C23.3083 38.0273 22.9569 37.8007 22.6396 37.506C22.3449 37.2113 22.1069 36.8713 21.9256 36.486C21.7443 36.1007 21.6536 35.6813 21.6536 35.228C21.6536 34.7973 21.7329 34.3893 21.8916 34.004C22.0729 33.596 22.3109 33.2447 22.6056 32.95C22.9229 32.6553 23.2856 32.4287 23.6936 32.27C24.1016 32.0887 24.5323 31.998 24.9856 31.998C25.4389 31.998 25.8583 32.0887 26.2436 32.27C26.6516 32.4287 27.0029 32.6553 27.2976 32.95C27.6149 33.222 27.8529 33.562 28.0116 33.97C28.1929 34.3553 28.2836 34.7633 28.2836 35.194Z" fill="#0019F8"/>
</svg>
