<svg viewBox="0 0 248 248" fill="none" xmlns="http://www.w3.org/2000/svg">
<g filter="url(#filter0_f_3_808)">
<circle cx="124" cy="124" r="120" fill="url(#paint0_radial_3_808)"/>
</g>
<path d="M103 94C103 99.0912 102.063 103.507 100.716 106.501C100.041 108.002 99.3403 108.972 98.7637 109.514C98.4861 109.775 98.2786 109.898 98.158 109.952C98.0521 110.001 98.0071 110 98.0005 110L98 110L97.9995 110C97.9929 110 97.9479 110.001 97.842 109.952C97.7214 109.898 97.5139 109.775 97.2363 109.514C96.6597 108.972 95.9592 108.002 95.2837 106.501C93.9367 103.507 93 99.0912 93 94C93 88.9088 93.9367 84.4928 95.2837 81.4993C95.9592 79.9983 96.6597 79.0283 97.2363 78.4863C97.5139 78.2255 97.7214 78.1024 97.842 78.0475C97.9479 77.9994 97.9929 77.9999 97.9995 78C97.9997 78 97.9999 78 98 78C98.0001 78 98.0003 78 98.0005 78C98.0071 77.9999 98.0521 77.9994 98.158 78.0475C98.2786 78.1024 98.4861 78.2255 98.7637 78.4863C99.3403 79.0283 100.041 79.9983 100.716 81.4993C102.063 84.4928 103 88.9088 103 94Z" fill="black" stroke="black" stroke-width="8"/>
<path d="M156 94C156 99.0912 155.063 103.507 153.716 106.501C153.041 108.002 152.34 108.972 151.764 109.514C151.486 109.775 151.279 109.898 151.158 109.952C151.052 110.001 151.007 110 151.001 110L151 110L150.999 110C150.993 110 150.948 110.001 150.842 109.952C150.721 109.898 150.514 109.775 150.236 109.514C149.66 108.972 148.959 108.002 148.284 106.501C146.937 103.507 146 99.0912 146 94C146 88.9088 146.937 84.4928 148.284 81.4993C148.959 79.9983 149.66 79.0283 150.236 78.4863C150.514 78.2255 150.721 78.1024 150.842 78.0475C150.948 77.9994 150.993 77.9999 150.999 78C151 78 151 78 151 78C151 78 151 78 151.001 78C151.007 77.9999 151.052 77.9994 151.158 78.0475C151.279 78.1024 151.486 78.2255 151.764 78.4863C152.34 79.0283 153.041 79.9983 153.716 81.4993C155.063 84.4928 156 88.9088 156 94Z" fill="black" stroke="black" stroke-width="8"/>
<path d="M85.7739 170.185C85.7739 170.185 85.7738 176.58 124.026 176.58C165.164 176.58 163.72 170.185 163.72 170.185" stroke="black" stroke-width="5" stroke-linecap="round"/>
<path d="M80.554 173.26L89.1672 167.008" stroke="black" stroke-width="5" stroke-linecap="round"/>
<path d="M168.427 173.485L160.159 166.783" stroke="black" stroke-width="5" stroke-linecap="round"/>
<defs>
<filter id="filter0_f_3_808" x="0" y="0" width="248" height="248" filterUnits="userSpaceOnUse" color-interpolation-filters="sRGB">
<feFlood flood-opacity="0" result="BackgroundImageFix"/>
<feBlend mode="normal" in="SourceGraphic" in2="BackgroundImageFix" result="shape"/>
<feGaussianBlur stdDeviation="2" result="effect1_foregroundBlur_3_808"/>
</filter>
<radialGradient id="paint0_radial_3_808" cx="0" cy="0" r="1" gradientUnits="userSpaceOnUse" gradientTransform="translate(124 124) rotate(90) scale(120)">
<stop offset="0.927083" stop-color="#FFD600"/>
<stop offset="1" stop-color="#FFD600" stop-opacity="0"/>
</radialGradient>
</defs>
</svg>
